<svg fill="#ffae00" height="200px" width="200px" version="1.1" id="Capa_1" xmlns="http://www.w3.org/2000/svg" xmlns:xlink="http://www.w3.org/1999/xlink" viewBox="0 0 347.971 347.971" xml:space="preserve" stroke="#ffae00"><g id="SVGRepo_bgCarrier" stroke-width="0"></g><g id="SVGRepo_tracerCarrier" stroke-linecap="round" stroke-linejoin="round"></g><g id="SVGRepo_iconCarrier"> <g> <path d="M79.773,173.987c0-17.528,0.953-34.725,2.755-51.281c-52.495,12.369-82.5,34.087-82.527,51.261c0,0.006,0,0.015,0,0.021 c0,0.006,0,0.016,0,0.022c0.027,17.159,30.032,38.89,82.527,51.251C80.727,208.699,79.773,191.517,79.773,173.987z"></path> <path d="M87.814,260.154c-20.026-3.947-38.55-9.296-54.822-15.929c-8.254-3.357-15.773-7.007-22.565-10.907 c17.569,48.285,55.941,86.658,104.223,104.227c-3.898-6.789-7.542-14.314-10.905-22.572 C97.106,298.699,91.769,280.177,87.814,260.154z"></path> <path d="M260.152,87.809c20.031,3.958,38.551,9.295,54.826,15.928c8.254,3.369,15.773,7.016,22.564,10.907 c-17.568-48.275-55.94-86.646-104.227-104.217c3.904,6.786,7.55,14.312,10.912,22.563C250.859,49.263,256.205,67.79,260.152,87.809 z"></path> <path d="M225.26,82.53C212.894,30.009,191.152,0,173.986,0c-17.172,0-38.905,30.009-51.274,82.53 c16.552-1.811,33.746-2.754,51.274-2.754S208.706,80.719,225.26,82.53z"></path> <path d="M87.814,87.809c3.954-20.019,9.292-38.546,15.93-54.819c3.363-8.251,7.007-15.776,10.905-22.563 C66.368,27.998,27.996,66.368,10.427,114.644c6.792-3.892,14.312-7.538,22.565-10.907C49.265,97.104,67.788,91.767,87.814,87.809z"></path> <path d="M265.444,122.706c1.798,16.557,2.755,33.753,2.755,51.281c0,17.529-0.957,34.712-2.755,51.273 c52.492-12.361,82.498-34.092,82.525-51.251c0-0.007,0-0.017,0-0.022c0-0.006,0-0.015,0-0.021 C347.942,156.793,317.937,135.075,265.444,122.706z"></path> <path d="M260.152,260.154c-3.947,20.022-9.293,38.545-15.925,54.818c-3.362,8.259-7.008,15.783-10.912,22.572 c48.287-17.568,86.659-55.941,104.227-104.227c-6.791,3.9-14.31,7.55-22.564,10.907 C298.703,250.858,280.184,256.207,260.152,260.154z"></path> <path d="M122.712,265.442c12.369,52.513,34.103,82.528,51.274,82.528c17.166,0,38.907-30.016,51.273-82.528 c-16.554,1.798-33.745,2.757-51.273,2.757S139.264,267.24,122.712,265.442z"></path> <path d="M231.432,116.543c-17.494-2.308-36.692-3.627-57.445-3.627c-20.753,0-39.95,1.319-57.445,3.627 c-2.303,17.495-3.626,36.692-3.626,57.444c0,20.75,1.323,39.947,3.626,57.438c17.495,2.312,36.692,3.633,57.445,3.633 c20.753,0,39.951-1.321,57.445-3.633c2.303-17.49,3.625-36.688,3.625-57.438C235.057,153.235,233.734,134.038,231.432,116.543z"></path> </g> </g></svg>